<?xml version="1.0" encoding="UTF-8" standalone="no"?>
<!DOCTYPE svg PUBLIC "-//W3C//DTD SVG 1.1//EN" "http://www.w3.org/Graphics/SVG/1.1/DTD/svg11.dtd">
<svg version="1.1" xmlns="http://www.w3.org/2000/svg" xmlns:xlink="http://www.w3.org/1999/xlink" preserveAspectRatio="xMidYMid meet" viewBox="252.33106887331053 156.8525434278278 185.9124087591241 285.91240875912416" width="175.91" height="275.91"><defs><path d="M423.24 161.85C428.77 161.85 433.24 166.33 433.24 171.85C433.24 225.04 433.24 374.58 433.24 427.76C433.24 433.29 428.77 437.76 423.24 437.76C390.06 437.76 300.51 437.76 267.33 437.76C261.81 437.76 257.33 433.29 257.33 427.76C257.33 374.58 257.33 225.04 257.33 171.85C257.33 166.33 261.81 161.85 267.33 161.85C300.51 161.85 390.06 161.85 423.24 161.85Z" id="c3Wu4wpRi"></path><path d="M273.55 178.47L413.9 178.47L413.9 217.01L273.55 217.01L273.55 178.47Z" id="l1Aqf89PA8"></path><path d="M411.91 231.09C416.55 231.09 420.31 234.85 420.31 239.49C420.31 241.17 420.31 237.81 420.31 239.49C420.31 244.12 416.55 247.88 411.91 247.88C383.23 247.88 305.56 247.88 276.88 247.88C272.24 247.88 268.48 244.12 268.48 239.49C268.48 237.81 268.48 241.17 268.48 239.49C268.48 234.85 272.24 231.09 276.88 231.09C305.56 231.09 383.23 231.09 411.91 231.09Z" id="gNyuD8nDz"></path><path d="M411.91 256.15C416.55 256.15 420.31 259.91 420.31 264.55C420.31 266.23 420.31 262.87 420.31 264.55C420.31 269.18 416.55 272.94 411.91 272.94C383.23 272.94 305.56 272.94 276.88 272.94C272.24 272.94 268.48 269.18 268.48 264.55C268.48 262.87 268.48 266.23 268.48 264.55C268.48 259.91 272.24 256.15 276.88 256.15C305.56 256.15 383.23 256.15 411.91 256.15Z" id="anLXSaMF"></path><path d="M412.81 279.51C417.44 279.51 421.2 283.27 421.2 287.9C421.2 289.58 421.2 286.22 421.2 287.9C421.2 292.54 417.44 296.3 412.81 296.3C384.12 296.3 306.46 296.3 277.77 296.3C273.13 296.3 269.37 292.54 269.37 287.9C269.37 286.22 269.37 289.58 269.37 287.9C269.37 283.27 273.13 279.51 277.77 279.51C306.46 279.51 384.12 279.51 412.81 279.51Z" id="b46PswsSf"></path><path d="M411.82 303.58C416.45 303.58 420.21 307.34 420.21 311.97C420.21 313.65 420.21 310.29 420.21 311.97C420.21 316.61 416.45 320.37 411.82 320.37C383.13 320.37 305.47 320.37 276.78 320.37C272.14 320.37 268.38 316.61 268.38 311.97C268.38 310.29 268.38 313.65 268.38 311.97C268.38 307.34 272.14 303.58 276.78 303.58C305.47 303.58 383.13 303.58 411.82 303.58Z" id="d6KZPW2bvW"></path><path d="M412.29 327.45C416.92 327.45 420.68 331.21 420.68 335.84C420.68 337.52 420.68 334.16 420.68 335.84C420.68 340.48 416.92 344.24 412.29 344.24C383.6 344.24 305.93 344.24 277.25 344.24C272.61 344.24 268.85 340.48 268.85 335.84C268.85 334.16 268.85 337.52 268.85 335.84C268.85 331.21 272.61 327.45 277.25 327.45C305.93 327.45 383.6 327.45 412.29 327.45Z" id="h6cQr4dI2U"></path><path d="M413.28 351.43C417.91 351.43 421.67 355.19 421.67 359.82C421.67 361.5 421.67 358.14 421.67 359.82C421.67 364.46 417.91 368.22 413.28 368.22C384.59 368.22 306.92 368.22 278.24 368.22C273.6 368.22 269.84 364.46 269.84 359.82C269.84 358.14 269.84 361.5 269.84 359.82C269.84 355.19 273.6 351.43 278.24 351.43C306.92 351.43 384.59 351.43 413.28 351.43Z" id="d23DKVq3hg"></path><path d="M412.29 376.53C416.92 376.53 420.68 380.29 420.68 384.92C420.68 386.6 420.68 383.24 420.68 384.92C420.68 389.56 416.92 393.32 412.29 393.32C383.6 393.32 305.93 393.32 277.25 393.32C272.61 393.32 268.85 389.56 268.85 384.92C268.85 383.24 268.85 386.6 268.85 384.92C268.85 380.29 272.61 376.53 277.25 376.53C305.93 376.53 383.6 376.53 412.29 376.53Z" id="b4KbsfNnHC"></path><path d="M412.38 402.37C417.02 402.37 420.78 406.13 420.78 410.76C420.78 412.44 420.78 409.08 420.78 410.76C420.78 415.4 417.02 419.16 412.38 419.16C383.7 419.16 306.03 419.16 277.35 419.16C272.71 419.16 268.95 415.4 268.95 410.76C268.95 409.08 268.95 412.44 268.95 410.76C268.95 406.13 272.71 402.37 277.35 402.37C306.03 402.37 383.7 402.37 412.38 402.37Z" id="b1GBBdCJpN"></path></defs><g><g><use xlink:href="#c3Wu4wpRi" opacity="1" fill="#ffffff" fill-opacity="1"></use><g><use xlink:href="#c3Wu4wpRi" opacity="1" fill-opacity="0" stroke="#c6c6c6" stroke-width="10" stroke-opacity="1"></use></g></g><g><use xlink:href="#l1Aqf89PA8" opacity="1" fill="#ffffff" fill-opacity="1"></use><g><use xlink:href="#l1Aqf89PA8" opacity="1" fill-opacity="0" stroke="#c6c6c6" stroke-width="6" stroke-opacity="1"></use></g></g><g><use xlink:href="#gNyuD8nDz" opacity="1" fill="#9c9c9c" fill-opacity="1"></use></g><g><use xlink:href="#anLXSaMF" opacity="1" fill="#9c9c9c" fill-opacity="1"></use></g><g><use xlink:href="#b46PswsSf" opacity="1" fill="#9c9c9c" fill-opacity="1"></use></g><g><use xlink:href="#d6KZPW2bvW" opacity="1" fill="#9c9c9c" fill-opacity="1"></use></g><g><use xlink:href="#h6cQr4dI2U" opacity="1" fill="#9c9c9c" fill-opacity="1"></use><g><use xlink:href="#h6cQr4dI2U" opacity="1" fill-opacity="0" stroke="#c6c6c6" stroke-width="1" stroke-opacity="1"></use></g></g><g><use xlink:href="#d23DKVq3hg" opacity="1" fill="#9c9c9c" fill-opacity="1"></use><g><use xlink:href="#d23DKVq3hg" opacity="1" fill-opacity="0" stroke="#9c9c9c" stroke-width="1" stroke-opacity="1"></use></g></g><g><use xlink:href="#b4KbsfNnHC" opacity="1" fill="#9c9c9c" fill-opacity="1"></use></g><g><use xlink:href="#b1GBBdCJpN" opacity="1" fill="#9c9c9c" fill-opacity="1"></use></g></g></svg>