<?xml version="1.0" encoding="UTF-8" standalone="no"?>
<!DOCTYPE svg PUBLIC "-//W3C//DTD SVG 1.1//EN" "http://www.w3.org/Graphics/SVG/1.1/DTD/svg11.dtd">
<svg version="1.1" xmlns="http://www.w3.org/2000/svg" xmlns:xlink="http://www.w3.org/1999/xlink" preserveAspectRatio="xMidYMid meet" viewBox="253.3211678832115 156.8525434278278 185.9124087591241 285.91240875912416" width="175.91" height="275.91"><defs><path d="M424.23 161.85C429.76 161.85 434.23 166.33 434.23 171.85C434.23 225.04 434.23 374.58 434.23 427.76C434.23 433.29 429.76 437.76 424.23 437.76C391.05 437.76 301.5 437.76 268.32 437.76C262.8 437.76 258.32 433.29 258.32 427.76C258.32 374.58 258.32 225.04 258.32 171.85C258.32 166.33 262.8 161.85 268.32 161.85C301.5 161.85 391.05 161.85 424.23 161.85Z" id="b71Ydpo3W"></path><path d="M281.24 239.38L281.24 185.89L340.16 185.89L340.16 239.38L281.24 239.38ZM288.6 232.69L299.65 222.66L307.02 226.01L318.06 212.64L332.79 230.47L332.79 192.58L288.6 192.58L288.6 232.69ZM302.02 200.12L302.28 200.14L302.54 200.18L302.79 200.22L303.04 200.27L303.29 200.33L303.53 200.4L303.77 200.47L304 200.56L304.23 200.65L304.45 200.75L304.67 200.86L304.89 200.98L305.1 201.1L305.3 201.23L305.49 201.36L305.69 201.51L305.87 201.66L306.05 201.81L306.22 201.97L306.38 202.14L306.54 202.32L306.69 202.49L306.84 202.68L306.97 202.87L307.1 203.06L307.22 203.26L307.33 203.46L307.43 203.67L307.52 203.88L307.61 204.1L307.68 204.32L307.75 204.54L307.81 204.77L307.85 205L307.89 205.23L307.91 205.47L307.93 205.71L307.94 205.95L307.93 206.19L307.91 206.43L307.89 206.67L307.85 206.9L307.81 207.13L307.75 207.36L307.68 207.58L307.61 207.8L307.52 208.01L307.43 208.23L307.33 208.43L307.22 208.64L307.1 208.84L306.97 209.03L306.84 209.22L306.69 209.4L306.54 209.58L306.38 209.76L306.22 209.92L306.05 210.09L305.87 210.24L305.69 210.39L305.49 210.53L305.3 210.67L305.1 210.8L304.89 210.92L304.67 211.04L304.45 211.15L304.23 211.25L304 211.34L303.77 211.42L303.53 211.5L303.29 211.57L303.04 211.63L302.79 211.68L302.54 211.72L302.28 211.76L302.02 211.78L301.76 211.8L301.49 211.8L301.23 211.8L300.96 211.78L300.7 211.76L300.45 211.72L300.19 211.68L299.94 211.63L299.7 211.57L299.46 211.5L299.22 211.42L298.98 211.34L298.76 211.25L298.53 211.15L298.31 211.04L298.1 210.92L297.89 210.8L297.69 210.67L297.49 210.53L297.3 210.39L297.11 210.24L296.94 210.09L296.76 209.92L296.6 209.76L296.44 209.58L296.29 209.4L296.15 209.22L296.01 209.03L295.89 208.84L295.77 208.64L295.66 208.43L295.55 208.23L295.46 208.01L295.38 207.8L295.3 207.58L295.24 207.36L295.18 207.13L295.13 206.9L295.1 206.67L295.07 206.43L295.05 206.19L295.05 205.95L295.05 205.71L295.07 205.47L295.1 205.23L295.13 205L295.18 204.77L295.24 204.54L295.3 204.32L295.38 204.1L295.46 203.88L295.55 203.67L295.66 203.46L295.77 203.26L295.89 203.06L296.01 202.87L296.15 202.68L296.29 202.49L296.44 202.32L296.6 202.14L296.76 201.97L296.94 201.81L297.11 201.66L297.3 201.51L297.49 201.36L297.69 201.23L297.89 201.1L298.1 200.98L298.31 200.86L298.53 200.75L298.76 200.65L298.98 200.56L299.22 200.47L299.46 200.4L299.7 200.33L299.94 200.27L300.19 200.22L300.45 200.18L300.7 200.14L300.96 200.12L301.23 200.1L301.49 200.1L301.76 200.1L302.02 200.12Z" id="bmfa3tYdc"></path><path d="M361.5 183.71L370.87 185.11L364.09 191.86L365.69 201.4L357.3 196.89L348.92 201.4L350.52 191.86L343.74 185.11L353.11 183.71L357.3 175.04L361.5 183.71Z" id="a1mJMdGfKU"></path><path d="M389.63 183.71L399 185.11L392.22 191.86L393.82 201.4L385.43 196.89L377.05 201.4L378.65 191.86L371.87 185.11L381.24 183.71L385.43 175.04L389.63 183.71Z" id="a1CU1zhOKR"></path><path d="M418.76 183.71L428.13 185.11L421.35 191.86L422.95 201.4L414.57 196.89L406.18 201.4L407.78 191.86L401 185.11L410.38 183.71L414.57 175.04L418.76 183.71Z" id="e3KRev6C8K"></path><path d="M413.8 254.26C418.43 254.26 422.19 258.02 422.19 262.66C422.19 264.34 422.19 260.98 422.19 262.66C422.19 267.29 418.43 271.05 413.8 271.05C385.11 271.05 307.45 271.05 278.76 271.05C274.12 271.05 270.36 267.29 270.36 262.66C270.36 260.98 270.36 264.34 270.36 262.66C270.36 258.02 274.12 254.26 278.76 254.26C307.45 254.26 385.11 254.26 413.8 254.26Z" id="aUkik8elj"></path><path d="M413.8 279.32C418.43 279.32 422.19 283.08 422.19 287.72C422.19 289.39 422.19 286.04 422.19 287.72C422.19 292.35 418.43 296.11 413.8 296.11C385.11 296.11 307.45 296.11 278.76 296.11C274.12 296.11 270.36 292.35 270.36 287.72C270.36 286.04 270.36 289.39 270.36 287.72C270.36 283.08 274.12 279.32 278.76 279.32C307.45 279.32 385.11 279.32 413.8 279.32Z" id="a4UA7NkA7R"></path><path d="M415.26 303.19C419.89 303.19 423.65 306.95 423.65 311.58C423.65 313.26 423.65 309.91 423.65 311.58C423.65 316.22 419.89 319.98 415.26 319.98C386.57 319.98 308.91 319.98 280.22 319.98C275.58 319.98 271.82 316.22 271.82 311.58C271.82 309.91 271.82 313.26 271.82 311.58C271.82 306.95 275.58 303.19 280.22 303.19C308.91 303.19 386.57 303.19 415.26 303.19Z" id="apMPqobfn"></path><path d="M415.26 356.87C419.89 356.87 423.65 360.63 423.65 365.27C423.65 366.95 423.65 363.59 423.65 365.27C423.65 369.9 419.89 373.66 415.26 373.66C386.57 373.66 308.91 373.66 280.22 373.66C275.58 373.66 271.82 369.9 271.82 365.27C271.82 363.59 271.82 366.95 271.82 365.27C271.82 360.63 275.58 356.87 280.22 356.87C308.91 356.87 386.57 356.87 415.26 356.87Z" id="b9hSlpYu2t"></path><path d="M415.26 384.94C419.89 384.94 423.65 388.7 423.65 393.34C423.65 395.02 423.65 391.66 423.65 393.34C423.65 397.97 419.89 401.73 415.26 401.73C386.57 401.73 308.91 401.73 280.22 401.73C275.58 401.73 271.82 397.97 271.82 393.34C271.82 391.66 271.82 395.02 271.82 393.34C271.82 388.7 275.58 384.94 280.22 384.94C308.91 384.94 386.57 384.94 415.26 384.94Z" id="batfiLf8d"></path></defs><g><g><use xlink:href="#b71Ydpo3W" opacity="1" fill="#ffffff" fill-opacity="1"></use><g><use xlink:href="#b71Ydpo3W" opacity="1" fill-opacity="0" stroke="#c6c6c6" stroke-width="10" stroke-opacity="1"></use></g></g><g><use xlink:href="#bmfa3tYdc" opacity="1" fill="#9c9c9c" fill-opacity="1"></use></g><g><use xlink:href="#a1mJMdGfKU" opacity="1" fill="#9c9c9c" fill-opacity="1"></use></g><g><use xlink:href="#a1CU1zhOKR" opacity="1" fill="#9c9c9c" fill-opacity="1"></use></g><g><use xlink:href="#e3KRev6C8K" opacity="1" fill="#9c9c9c" fill-opacity="1"></use></g><g><use xlink:href="#aUkik8elj" opacity="1" fill="#9c9c9c" fill-opacity="1"></use></g><g><use xlink:href="#a4UA7NkA7R" opacity="1" fill="#9c9c9c" fill-opacity="1"></use></g><g><use xlink:href="#apMPqobfn" opacity="1" fill="#9c9c9c" fill-opacity="1"></use><g><use xlink:href="#apMPqobfn" opacity="1" fill-opacity="0" stroke="#c6c6c6" stroke-width="1" stroke-opacity="1"></use></g></g><g><use xlink:href="#b9hSlpYu2t" opacity="1" fill="#9c9c9c" fill-opacity="1"></use><g><use xlink:href="#b9hSlpYu2t" opacity="1" fill-opacity="0" stroke="#9c9c9c" stroke-width="1" stroke-opacity="1"></use></g></g><g><use xlink:href="#batfiLf8d" opacity="1" fill="#9c9c9c" fill-opacity="1"></use></g></g></svg>