<?xml version="1.0" encoding="UTF-8" standalone="no"?>
<!DOCTYPE svg PUBLIC "-//W3C//DTD SVG 1.1//EN" "http://www.w3.org/Graphics/SVG/1.1/DTD/svg11.dtd">
<svg version="1.1" xmlns="http://www.w3.org/2000/svg" xmlns:xlink="http://www.w3.org/1999/xlink" preserveAspectRatio="xMidYMid meet" viewBox="252.33106887331053 156.8525434278278 185.9124087591241 285.91240875912416" width="175.91" height="275.91"><defs><path d="M423.24 161.85C428.77 161.85 433.24 166.33 433.24 171.85C433.24 225.04 433.24 374.58 433.24 427.76C433.24 433.29 428.77 437.76 423.24 437.76C390.06 437.76 300.51 437.76 267.33 437.76C261.81 437.76 257.33 433.29 257.33 427.76C257.33 374.58 257.33 225.04 257.33 171.85C257.33 166.33 261.81 161.85 267.33 161.85C300.51 161.85 390.06 161.85 423.24 161.85Z" id="c3Wu4wpRi"></path><path d="M411.91 181.09C416.55 181.09 420.31 184.85 420.31 189.49C420.31 191.17 420.31 187.81 420.31 189.49C420.31 194.12 416.55 197.88 411.91 197.88C383.23 197.88 305.56 197.88 276.88 197.88C272.24 197.88 268.48 194.12 268.48 189.49C268.48 187.81 268.48 191.17 268.48 189.49C268.48 184.85 272.24 181.09 276.88 181.09C305.56 181.09 383.23 181.09 411.91 181.09Z" id="b155CaVDWw"></path><path d="M411.91 206.15C416.55 206.15 420.31 209.91 420.31 214.55C420.31 216.23 420.31 212.87 420.31 214.55C420.31 219.18 416.55 222.94 411.91 222.94C383.23 222.94 305.56 222.94 276.88 222.94C272.24 222.94 268.48 219.18 268.48 214.55C268.48 212.87 268.48 216.23 268.48 214.55C268.48 209.91 272.24 206.15 276.88 206.15C305.56 206.15 383.23 206.15 411.91 206.15Z" id="d1ikXh5ZFv"></path><path d="M412.81 228.52C417.44 228.52 421.2 232.28 421.2 236.91C421.2 238.59 421.2 235.24 421.2 236.91C421.2 241.55 417.44 245.31 412.81 245.31C384.12 245.31 306.46 245.31 277.77 245.31C273.13 245.31 269.37 241.55 269.37 236.91C269.37 235.24 269.37 238.59 269.37 236.91C269.37 232.28 273.13 228.52 277.77 228.52C306.46 228.52 384.12 228.52 412.81 228.52Z" id="aJHTelMqW"></path><path d="M411.82 253.58C416.45 253.58 420.21 257.34 420.21 261.97C420.21 263.65 420.21 260.29 420.21 261.97C420.21 266.61 416.45 270.37 411.82 270.37C383.13 270.37 305.47 270.37 276.78 270.37C272.14 270.37 268.38 266.61 268.38 261.97C268.38 260.29 268.38 263.65 268.38 261.97C268.38 257.34 272.14 253.58 276.78 253.58C305.47 253.58 383.13 253.58 411.82 253.58Z" id="a456VBLOJJ"></path><path d="M412.29 277.45C416.92 277.45 420.68 281.21 420.68 285.84C420.68 287.52 420.68 284.16 420.68 285.84C420.68 290.48 416.92 294.24 412.29 294.24C383.6 294.24 305.93 294.24 277.25 294.24C272.61 294.24 268.85 290.48 268.85 285.84C268.85 284.16 268.85 287.52 268.85 285.84C268.85 281.21 272.61 277.45 277.25 277.45C305.93 277.45 383.6 277.45 412.29 277.45Z" id="aO6bpiPmy"></path><path d="M413.28 301.43C417.91 301.43 421.67 305.19 421.67 309.82C421.67 311.5 421.67 308.14 421.67 309.82C421.67 314.46 417.91 318.22 413.28 318.22C384.59 318.22 306.92 318.22 278.24 318.22C273.6 318.22 269.84 314.46 269.84 309.82C269.84 308.14 269.84 311.5 269.84 309.82C269.84 305.19 273.6 301.43 278.24 301.43C306.92 301.43 384.59 301.43 413.28 301.43Z" id="b1CaAETnLr"></path><path d="M412.29 326.53C416.92 326.53 420.68 330.29 420.68 334.92C420.68 336.6 420.68 333.24 420.68 334.92C420.68 339.56 416.92 343.32 412.29 343.32C383.6 343.32 305.93 343.32 277.25 343.32C272.61 343.32 268.85 339.56 268.85 334.92C268.85 333.24 268.85 336.6 268.85 334.92C268.85 330.29 272.61 326.53 277.25 326.53C305.93 326.53 383.6 326.53 412.29 326.53Z" id="a281EPpInB"></path><path d="M412.38 352.37C417.02 352.37 420.78 356.13 420.78 360.76C420.78 362.44 420.78 359.08 420.78 360.76C420.78 365.4 417.02 369.16 412.38 369.16C383.7 369.16 306.03 369.16 277.35 369.16C272.71 369.16 268.95 365.4 268.95 360.76C268.95 359.08 268.95 362.44 268.95 360.76C268.95 356.13 272.71 352.37 277.35 352.37C306.03 352.37 383.7 352.37 412.38 352.37Z" id="n6dythHOW"></path><path d="M298.92 389.57L317.19 392.06L303.97 404.14L307.09 421.2L290.75 413.14L274.42 421.2L277.54 404.14L264.32 392.06L282.59 389.57L290.75 374.05L298.92 389.57Z" id="lCYJYSgbb"></path><path d="M353.44 389.68L371.7 392.17L358.49 404.25L361.61 421.31L345.27 413.26L328.93 421.31L332.05 404.25L318.83 392.17L337.1 389.68L345.27 374.16L353.44 389.68Z" id="c2M3hncVP"></path><path d="M408.96 389.81L427.23 392.3L414.01 404.38L417.13 421.44L400.79 413.39L384.45 421.44L387.57 404.38L374.35 392.3L392.62 389.81L400.79 374.29L408.96 389.81Z" id="e3q5WQfyl"></path></defs><g><g><use xlink:href="#c3Wu4wpRi" opacity="1" fill="#ffffff" fill-opacity="1"></use><g><use xlink:href="#c3Wu4wpRi" opacity="1" fill-opacity="0" stroke="#c6c6c6" stroke-width="10" stroke-opacity="1"></use></g></g><g><use xlink:href="#b155CaVDWw" opacity="1" fill="#9c9c9c" fill-opacity="1"></use></g><g><use xlink:href="#d1ikXh5ZFv" opacity="1" fill="#9c9c9c" fill-opacity="1"></use></g><g><use xlink:href="#aJHTelMqW" opacity="1" fill="#9c9c9c" fill-opacity="1"></use></g><g><use xlink:href="#a456VBLOJJ" opacity="1" fill="#9c9c9c" fill-opacity="1"></use></g><g><use xlink:href="#aO6bpiPmy" opacity="1" fill="#9c9c9c" fill-opacity="1"></use><g><use xlink:href="#aO6bpiPmy" opacity="1" fill-opacity="0" stroke="#c6c6c6" stroke-width="1" stroke-opacity="1"></use></g></g><g><use xlink:href="#b1CaAETnLr" opacity="1" fill="#9c9c9c" fill-opacity="1"></use><g><use xlink:href="#b1CaAETnLr" opacity="1" fill-opacity="0" stroke="#9c9c9c" stroke-width="1" stroke-opacity="1"></use></g></g><g><use xlink:href="#a281EPpInB" opacity="1" fill="#9c9c9c" fill-opacity="1"></use></g><g><use xlink:href="#n6dythHOW" opacity="1" fill="#9c9c9c" fill-opacity="1"></use></g><g><use xlink:href="#lCYJYSgbb" opacity="1" fill="#9c9c9c" fill-opacity="1"></use></g><g><use xlink:href="#c2M3hncVP" opacity="1" fill="#9c9c9c" fill-opacity="1"></use></g><g><use xlink:href="#e3q5WQfyl" opacity="1" fill="#9c9c9c" fill-opacity="1"></use></g></g></svg>